<svg width="3000" height="3000" viewBox="0 0 3000 3000" fill="none" xmlns="http://www.w3.org/2000/svg">
<rect width="3000" height="3000" rx="1500" fill="white"/>
<path fill-rule="evenodd" clip-rule="evenodd" d="M1521.35 406.652C1570.19 407.54 1630.14 411.05 1654.54 414.432C1678.93 417.773 1717.96 424.665 1741.21 429.739C1764.47 434.855 1806.32 446.314 1834.23 455.236C1862.13 464.157 1903.99 479.337 1927.25 489.02C1950.5 498.703 1983.82 513.798 2001.24 522.55C2018.7 531.303 2051 549.4 2073.11 562.761C2095.23 576.123 2134.21 602.761 2159.79 621.958C2185.37 641.154 2218.64 667.962 2233.78 681.535C2248.92 695.065 2278.26 724.325 2299.02 746.524C2319.78 768.722 2350.05 803.987 2366.24 824.917C2382.48 845.847 2405.73 878.193 2417.91 896.798C2430.09 915.402 2453.47 956.29 2469.87 987.706C2486.28 1019.12 2508.35 1067.16 2518.96 1094.47C2529.53 1121.79 2538.2 1145.13 2538.2 1146.27C2538.2 1147.41 2463.07 1148.38 2204.18 1148.38L2184.65 1111.38C2173.91 1091.05 2153.24 1057.26 2138.69 1036.33C2124.15 1015.4 2096.16 980.222 2076.5 958.108C2056.79 935.994 2028.47 907.284 2013.54 894.303C1998.66 881.28 1969.31 857.94 1948.39 842.38C1927.46 826.862 1887.5 802.803 1859.6 789.018C1831.69 775.192 1787.93 757.01 1762.35 748.638C1736.77 740.224 1698.72 729.822 1677.79 725.425C1656.86 721.069 1623.54 715.53 1603.8 713.078C1584.05 710.625 1536.95 708.638 1499.15 708.638C1461.36 708.638 1409.05 711.429 1382.88 714.854C1356.71 718.236 1312.49 726.904 1284.58 734.093C1256.68 741.281 1214.82 754.769 1191.56 764.114C1168.31 773.458 1135.03 788.807 1117.57 798.236C1100.15 807.665 1072.08 825.593 1055.21 838.109C1037.37 851.344 1016.52 871.893 1005.27 887.284C994.705 901.83 981.894 924.197 976.862 936.967C969.125 956.671 967.73 968.637 967.856 1015.19C967.941 1064.87 969.083 1072.99 979.526 1099.76C985.868 1116.04 997.622 1139.33 1005.7 1151.55C1013.73 1163.77 1027.47 1181.57 1036.18 1191.17C1044.89 1200.77 1065.36 1218.61 1081.63 1230.88C1097.91 1243.14 1124.55 1259.97 1140.83 1268.21C1157.1 1276.5 1187.55 1288.93 1208.48 1295.87C1229.4 1302.8 1261.28 1311.43 1279.3 1315.1C1297.31 1318.74 1333.46 1323.65 1359.63 1325.93C1385.8 1328.25 1468.08 1330.11 1542.49 1330.11C1616.91 1330.11 1697.79 1332.1 1722.18 1334.51C1746.58 1336.92 1784.63 1341.91 1806.75 1345.55C1828.86 1349.23 1868.77 1357.68 1895.53 1364.41C1922.3 1371.13 1966.02 1385.17 1992.78 1395.61C2019.54 1406.06 2056.62 1422.38 2075.23 1431.89C2093.83 1441.4 2127.11 1461.19 2149.22 1475.91C2171.33 1490.58 2204.61 1515.78 2223.21 1531.85C2241.81 1547.96 2269.76 1576.24 2285.32 1594.72C2300.88 1613.2 2322.27 1642.54 2332.84 1660.01C2343.46 1677.43 2358.76 1706.94 2366.84 1725.55C2374.95 1744.15 2386.67 1778.4 2392.92 1801.66C2403.16 1839.84 2404.26 1851.3 2404.51 1920.05C2404.72 1984.87 2403.37 2002.12 2395.25 2036.33C2390.01 2058.44 2379.27 2092.69 2371.36 2112.44C2363.45 2132.18 2348.95 2162.63 2339.14 2180.09C2329.33 2197.51 2310.82 2226.05 2297.92 2243.51C2285.07 2260.93 2251.58 2298.06 2223.51 2325.97C2195.43 2353.87 2153.45 2390.11 2130.19 2406.52C2106.94 2422.92 2070.79 2446.22 2049.86 2458.27C2028.93 2470.32 1988.04 2490.45 1958.96 2503.01C1929.91 2515.56 1887.08 2531.93 1863.82 2539.37C1840.57 2546.77 1801.55 2557.34 1777.15 2562.84C1752.75 2568.33 1712.76 2575.86 1688.36 2579.54C1663.96 2583.26 1604.94 2587.44 1557.29 2588.84C1502.88 2590.45 1450.95 2589.52 1417.76 2586.39C1388.72 2583.64 1346.86 2578.57 1324.75 2575.1C1302.63 2571.67 1257.94 2562.29 1225.39 2554.3C1192.83 2546.26 1142.43 2531.04 1113.34 2520.47C1084.3 2509.86 1041.47 2492.1 1018.21 2480.98C994.958 2469.86 957.878 2450.15 935.766 2437.17C913.653 2424.19 871.837 2395.9 842.748 2374.3C809.093 2349.26 765.248 2310.32 721.995 2267.07C681.067 2226.09 639.04 2178.95 616.167 2148.38C595.28 2120.47 568.389 2081.44 556.424 2061.7C544.459 2041.95 521.331 1998.19 505.053 1964.45C488.775 1930.7 465.944 1874.59 454.359 1839.71C442.774 1804.83 428.483 1752.48 422.606 1723.43C416.687 1694.34 409.457 1653.45 406.497 1632.52C403.368 1610.49 401.043 1552.65 401.001 1495.1C400.958 1438.57 403.284 1376.58 406.412 1351.34C409.457 1326.94 414.826 1290.75 418.378 1271C421.929 1251.21 427.764 1222.67 431.273 1207.58C434.825 1192.44 444.423 1158.19 452.583 1131.47C460.743 1104.7 476.387 1061.91 487.338 1036.33C498.288 1010.75 518.202 970.793 531.563 947.538C544.881 924.282 566.614 890.498 579.847 872.485C593.039 854.473 604.201 840.181 604.624 840.773C605.047 841.365 599.973 859.885 593.42 881.999C586.824 904.113 579.171 938.32 576.465 958.108C573.717 977.855 571.518 1018.78 571.56 1049.02C571.603 1084.75 574.605 1120.98 580.143 1152.61C584.837 1179.33 593.631 1216.46 599.762 1235.06C605.892 1253.67 618.196 1284.11 627.117 1302.72C636.081 1321.32 651.386 1348.89 661.153 1364.03C670.92 1379.12 688.678 1403.81 722.249 1446.1L722.84 1507.62C723.136 1541.45 725.589 1585.29 728.295 1605.04C730.958 1624.79 737.004 1656.2 741.655 1674.81C746.306 1693.41 754.044 1720.05 758.779 1734C763.557 1747.96 777.382 1780.3 789.475 1805.88C801.609 1831.47 820.678 1866.65 831.882 1884.11C843.129 1901.53 864.861 1932.01 880.251 1951.76C895.641 1971.51 928.197 2007.41 952.635 2031.51C977.074 2055.61 1014.2 2088.04 1035.12 2103.64C1056.05 2119.2 1084.59 2138.86 1098.55 2147.28C1112.5 2155.73 1143.91 2172.06 1168.31 2183.56C1192.7 2195.06 1227.92 2209.52 1246.53 2215.69C1265.13 2221.91 1294.64 2230.58 1312.06 2234.97C1329.52 2239.41 1364.7 2246.18 1390.28 2250.03C1419.29 2254.38 1465.46 2257.17 1512.9 2257.43C1554.75 2257.64 1607.05 2255.4 1629.17 2252.44C1651.28 2249.52 1689.33 2242.29 1713.73 2236.37C1738.12 2230.45 1772.41 2220.34 1789.83 2213.92C1807.3 2207.45 1837.74 2194.72 1857.48 2185.59C1877.23 2176.45 1910.54 2157.72 1931.47 2143.9C1952.4 2130.11 1981.7 2107.41 1996.59 2093.41C2011.47 2079.46 2032.95 2054.72 2044.36 2038.44C2056.2 2021.57 2068.76 1997.05 2073.62 1981.36C2080.26 1959.79 2081.82 1944.78 2080.77 1911.59C2079.67 1876.16 2077.64 1865.55 2068.21 1846.05C2062.04 1833.28 2047.58 1812.31 2036.08 1799.54C2024.58 1786.77 2001.11 1766.43 1983.9 1754.43C1966.69 1742.42 1938.37 1726.01 1920.9 1718.02C1903.48 1709.99 1871.14 1697.6 1849.03 1690.49C1826.91 1683.43 1787.93 1673.67 1762.35 1668.89C1736.77 1664.11 1695.84 1658.23 1671.45 1655.82C1647.05 1653.45 1561.43 1651.51 1481.19 1651.51C1400.94 1651.55 1314.39 1649.61 1288.81 1647.28C1263.23 1644.95 1221.37 1639.12 1195.79 1634.38C1170.21 1629.65 1135.96 1622.08 1119.69 1617.56C1103.41 1613.07 1074.87 1603.52 1056.27 1596.33C1037.66 1589.14 1007.22 1575.57 988.616 1566.14C970.013 1556.75 938.725 1538.32 919.149 1525.25C899.531 1512.14 863.593 1482.42 839.281 1459.16C814.97 1435.91 781.484 1398.82 764.91 1376.71C748.293 1354.6 724.87 1317.51 712.905 1294.26C700.897 1271 685.507 1234.85 678.615 1213.92C671.765 1192.99 662.717 1156.84 658.574 1133.58C653.247 1103.9 650.963 1069.23 650.837 1017.3C650.752 961.449 652.57 934.514 658.363 907.369C662.591 887.58 671.47 857.136 678.15 839.716C684.83 822.253 698.233 794.684 707.915 778.405C717.64 762.126 736.243 735.53 749.266 719.251C762.331 703.014 783.471 679.378 796.24 666.778C809.008 654.135 833.785 632.444 851.204 618.575C868.666 604.664 895.261 585.341 910.397 575.531C925.534 565.764 951.198 549.95 967.476 540.309C983.754 530.711 1018 513.502 1043.58 502.043C1069.16 490.584 1110.09 474.221 1134.48 465.679C1158.88 457.138 1204.59 443.608 1235.96 435.574C1267.33 427.582 1316.84 418.196 1345.89 414.771C1374.98 411.346 1406.35 407.752 1415.65 406.779C1424.95 405.807 1472.52 405.722 1521.35 406.652V406.652ZM1502.33 776.883C1524.44 776.545 1562.49 778.194 1586.89 780.562C1611.28 782.972 1655.09 790.794 1684.13 797.982C1713.22 805.17 1751.27 816.714 1768.69 823.648C1786.16 830.583 1820.4 846.396 1844.8 858.87C1869.19 871.301 1898.24 888.257 1929.36 911.597V1148.38H1658.76V1249.86H1337.43V1148.38H1075.29L1075.42 913.711L1105.99 894.134C1122.81 883.352 1148.94 867.792 1164.08 859.589C1179.22 851.344 1208.69 837.559 1229.62 828.976C1250.54 820.392 1288.6 807.961 1314.18 801.28C1339.76 794.642 1377.81 787.242 1398.74 784.875C1419.67 782.464 1442.5 779.843 1449.47 779.039C1456.45 778.236 1480.21 777.264 1502.33 776.883ZM1730.68 1211.76L2565.09 1213.92L2568.56 1226.61C2570.5 1233.58 2575.75 1258.32 2580.27 1281.57C2584.79 1304.83 2590.88 1341.91 2593.8 1364.03C2596.72 1386.14 2599.04 1446.99 2599 1499.33C2599 1551.64 2596.55 1612.52 2593.63 1634.64C2590.67 1656.75 2582.93 1699.54 2576.42 1729.77C2569.91 1760.01 2556.97 1807.58 2547.63 1835.48C2538.33 1863.39 2522.6 1904.28 2512.7 1926.39C2502.81 1948.51 2486.41 1981.32 2476.3 1999.33C2466.15 2017.34 2456.89 2032.1 2455.75 2032.1C2454.61 2032.1 2454.44 2030.66 2455.46 2028.93C2456.43 2027.19 2460.49 2001.02 2464.42 1970.79C2469.58 1931.55 2470.97 1900.68 2469.24 1862.97C2467.93 1833.88 2463.79 1795.82 2460.02 1778.4C2456.3 1760.94 2448.57 1732.9 2442.86 1716.03C2437.15 1699.16 2424.68 1669.69 2415.08 1650.49C2405.48 1631.3 2388.82 1602.38 2378.08 1586.22C2367.3 1570.07 2342.31 1539.84 2322.57 1519.04C2302.82 1498.23 2273.31 1470.41 2257.03 1457.18C2240.76 1443.98 2216.02 1425.51 2202.07 1416.12C2188.12 1406.77 2160.51 1389.95 2140.76 1378.78C2121.02 1367.62 2086.77 1350.92 2064.66 1341.7C2042.54 1332.48 2005.46 1318.7 1982.21 1311.13C1958.96 1303.52 1918.07 1292.53 1891.31 1286.65C1864.54 1280.77 1825.56 1273.75 1804.63 1271.09C1783.7 1268.42 1758.5 1265.42 1730.64 1262.55L1730.68 1211.76ZM1337.35 1731.89H1658.76V2188.55L1649.25 2190.53C1644.01 2191.63 1629.29 2194.34 1616.48 2196.54C1603.71 2198.74 1575.17 2201.87 1553.06 2203.47C1530.15 2205.16 1490.23 2204.32 1460.04 2201.53C1431 2198.82 1391.97 2193.37 1339.55 2182.16L1337.35 1731.89Z" fill="#033D4A"/>
<path d="M723.22 1514.13C722.29 1523.43 721.529 1517.73 721.529 1501.45C721.487 1485.17 722.248 1477.56 723.178 1484.53C724.108 1491.51 724.108 1504.83 723.22 1514.13Z" fill="#033D4A"/>
<path d="M1586.89 1730.83C1546.17 1731.51 1477.68 1731.51 1434.68 1730.83C1391.68 1730.16 1424.95 1729.56 1508.67 1729.56C1592.38 1729.56 1627.56 1730.11 1586.89 1730.83Z" fill="#033D4A"/>
<path d="M1540.38 2259.29C1532.26 2260.17 1517 2260.17 1506.55 2259.29C1496.07 2258.4 1502.75 2257.68 1521.35 2257.64C1539.95 2257.64 1548.5 2258.36 1540.38 2259.29Z" fill="#033D4A"/>
<path d="M2259.15 1210.67C2248.66 1211.56 2232.51 1211.56 2223.21 1210.67C2213.91 1209.78 2222.49 1209.06 2242.23 1209.06C2261.98 1209.06 2269.63 1209.78 2259.15 1210.67Z" fill="#033D4A"/>
<path d="M1527.69 1252.95C1519.57 1253.84 1504.35 1253.84 1493.87 1252.95C1483.38 1252.06 1490.06 1251.34 1508.67 1251.3C1527.27 1251.3 1535.81 1252.02 1527.69 1252.95Z" fill="#033D4A"/>
<path d="M1536.15 1654.72C1500.13 1655.44 1442.07 1655.44 1407.19 1654.72C1372.31 1654.01 1401.82 1653.41 1472.73 1653.41C1543.63 1653.41 1572.17 1654.01 1536.15 1654.72Z" fill="#033D4A"/>
<path d="M2469.41 1898.91C2468.48 1908.21 2467.72 1902.5 2467.72 1886.22C2467.67 1869.95 2468.44 1862.33 2469.37 1869.31C2470.3 1876.29 2470.3 1889.61 2469.41 1898.91Z" fill="#033D4A"/>
<path d="M2410.21 1943.31C2409.28 1951.42 2408.57 1943.81 2408.57 1926.39C2408.57 1908.93 2409.28 1902.29 2410.21 1911.59C2411.1 1920.9 2411.1 1935.19 2410.21 1943.31Z" fill="#033D4A"/>
<path d="M1553.06 2593.37C1540.29 2594.17 1517.46 2594.21 1502.32 2593.37C1487.19 2592.56 1497.67 2591.84 1525.58 2591.84C1553.48 2591.84 1565.83 2592.52 1553.06 2593.37Z" fill="#033D4A"/>
<path d="M1074.23 1089.18C1073.52 1122.93 1072.92 1097.22 1072.92 1032.1C1072.92 966.986 1073.52 939.375 1074.23 970.792C1074.95 1002.21 1074.95 1055.44 1074.23 1089.18Z" fill="#033D4A"/>
<path d="M1661.89 1224.49C1661.09 1239.59 1660.41 1228.21 1660.41 1199.12C1660.41 1170.03 1661.09 1157.68 1661.89 1171.64C1662.74 1185.59 1662.74 1209.4 1661.89 1224.49Z" fill="#033D4A"/>
<path d="M1565.75 1329.14C1534.37 1329.86 1483.93 1329.86 1453.7 1329.14C1423.47 1328.42 1449.14 1327.83 1510.78 1327.83C1572.43 1327.83 1597.12 1328.42 1565.75 1329.14Z" fill="#033D4A"/>
<path d="M1661.93 2074.38C1661.26 2138.35 1660.75 2086.98 1660.75 1960.22C1660.75 1833.45 1661.26 1781.15 1661.93 1843.94C1662.57 1906.73 1662.57 2010.41 1661.93 2074.38Z" fill="#033D4A"/>
</svg>
